<?xml version="1.0" encoding="UTF-8"?>
<svg id="Layer_1" data-name="Layer 1" xmlns="http://www.w3.org/2000/svg" viewBox="0 0 350.43 422.87">
  <defs>
    <style>
      .cls-1, .cls-2, .cls-3, .cls-4, .cls-5, .cls-6, .cls-7, .cls-8, .cls-9, .cls-10, .cls-11, .cls-12 {
        fill: none;
        stroke-miterlimit: 10;
      }

      .cls-1, .cls-8 {
        stroke: #fff;
        stroke-linecap: round;
      }

      .cls-1, .cls-11 {
        stroke-width: 3px;
      }

      .cls-2 {
        stroke-width: 8px;
      }

      .cls-2, .cls-3, .cls-4, .cls-5, .cls-6, .cls-7, .cls-9, .cls-10, .cls-11, .cls-12 {
        stroke: #002332;
      }

      .cls-13 {
        fill: #002332;
      }

      .cls-13, .cls-14, .cls-15, .cls-16, .cls-17, .cls-18, .cls-19, .cls-20, .cls-21, .cls-22 {
        stroke-width: 0px;
      }

      .cls-3 {
        stroke-width: 7px;
      }

      .cls-4, .cls-8 {
        stroke-width: 2px;
      }

      .cls-5 {
        stroke-width: 10px;
      }

      .cls-14 {
        fill: #999;
      }

      .cls-6 {
        stroke-width: 4px;
      }

      .cls-7 {
        stroke-width: 9px;
      }

      .cls-15 {
        fill: #0acfb4;
      }

      .cls-16 {
        fill: #d4d6d5;
      }

      .cls-17 {
        fill: #06a095;
      }

      .cls-18 {
        fill: #ffa3bb;
      }

      .cls-19 {
        fill: #f2f2f2;
      }

      .cls-20 {
        fill: #965a87;
      }

      .cls-9 {
        stroke-width: 5px;
      }

      .cls-10 {
        stroke-width: 14px;
      }

      .cls-21 {
        fill: #ccc;
      }

      .cls-22 {
        fill: #fff;
      }

      .cls-12 {
        stroke-width: 6px;
      }
    </style>
  </defs>
  <g>
    <circle class="cls-18" cx="341.36" cy="317.78" r="7.56"/>
    <path class="cls-20" d="M343.01,321.13c.71-.44,2.8-1.86,3.64-4.57.36-1.14.38-2.17.33-2.9,1.96,3.7.56,8.31-3.02,10.26-3.52,1.92-7.98.72-10.07-2.7.82.39,2.36,1,4.37,1.02,2.23.02,3.92-.69,4.75-1.11Z"/>
    <circle class="cls-11" cx="341.36" cy="317.78" r="7.56"/>
  </g>
  <line class="cls-3" x1="216.49" y1="137.2" x2="189.39" y2="177.73"/>
  <g>
    <line class="cls-3" x1="188.98" y1="185.11" x2="192.43" y2="196.89"/>
    <line class="cls-3" x1="164.71" y1="178.01" x2="184.6" y2="179.75"/>
    <line class="cls-3" x1="153.34" y1="195.95" x2="160.99" y2="180.13"/>
    <line class="cls-3" x1="169.04" y1="212.95" x2="156.02" y2="202.23"/>
    <line class="cls-3" x1="190.88" y1="205.11" x2="174.07" y2="214.5"/>
    <g>
      <path class="cls-19" d="M200.75,207.4c-2.48,3.24-7.33,3.9-10.83,1.47-3.5-2.43-4.32-7.02-1.84-10.25,2.48-3.24,7.33-3.9,10.83-1.47s4.32,7.02,1.84,10.25Z"/>
      <path class="cls-21" d="M192.85,207.34c.79.32,3.25,1.18,6,.34,1.16-.35,2.02-.9,2.6-1.35-1.85,3.61-6.51,5.07-10.31,3.31-3.73-1.72-5.47-5.92-3.93-9.48.18.87.62,2.42,1.83,4.03,1.35,1.78,2.96,2.72,3.82,3.15Z"/>
      <path class="cls-4" d="M200.75,207.4c-2.48,3.24-7.33,3.9-10.83,1.47-3.5-2.43-4.32-7.02-1.84-10.25,2.48-3.24,7.33-3.9,10.83-1.47s4.32,7.02,1.84,10.25Z"/>
    </g>
    <g>
      <path class="cls-19" d="M179.08,219.87c-2.48,3.24-7.33,3.9-10.83,1.47s-4.32-7.02-1.84-10.25,7.33-3.9,10.83-1.47,4.32,7.02,1.84,10.25Z"/>
      <path class="cls-21" d="M171.18,219.81c.79.32,3.25,1.18,6,.34,1.16-.35,2.02-.9,2.6-1.35-1.85,3.61-6.51,5.07-10.31,3.31-3.73-1.72-5.47-5.92-3.93-9.48.18.87.62,2.42,1.83,4.03,1.35,1.78,2.96,2.72,3.82,3.15Z"/>
      <path class="cls-4" d="M179.08,219.87c-2.48,3.24-7.33,3.9-10.83,1.47s-4.32-7.02-1.84-10.25,7.33-3.9,10.83-1.47,4.32,7.02,1.84,10.25Z"/>
    </g>
    <g>
      <path class="cls-19" d="M160.52,203.98c-2.48,3.24-7.33,3.9-10.83,1.47s-4.32-7.02-1.84-10.25,7.33-3.9,10.83-1.47,4.32,7.02,1.84,10.25Z"/>
      <path class="cls-21" d="M152.62,203.92c.79.32,3.25,1.18,6,.34,1.16-.35,2.02-.9,2.6-1.35-1.85,3.61-6.51,5.07-10.31,3.31-3.73-1.72-5.47-5.92-3.93-9.48.18.87.62,2.42,1.83,4.03,1.35,1.78,2.96,2.72,3.82,3.15Z"/>
      <path class="cls-4" d="M160.52,203.98c-2.48,3.24-7.33,3.9-10.83,1.47s-4.32-7.02-1.84-10.25,7.33-3.9,10.83-1.47,4.32,7.02,1.84,10.25Z"/>
    </g>
    <g>
      <path class="cls-19" d="M168.91,182.43c-2.48,3.24-7.33,3.9-10.83,1.47s-4.32-7.02-1.84-10.25c2.48-3.24,7.33-3.9,10.83-1.47,3.5,2.43,4.32,7.02,1.84,10.25Z"/>
      <path class="cls-21" d="M161.01,182.37c.79.32,3.25,1.18,6,.34,1.16-.35,2.02-.9,2.6-1.35-1.85,3.61-6.51,5.07-10.31,3.31-3.73-1.72-5.47-5.92-3.93-9.48.18.87.62,2.42,1.83,4.03,1.35,1.78,2.96,2.72,3.82,3.15Z"/>
      <path class="cls-4" d="M168.91,182.43c-2.48,3.24-7.33,3.9-10.83,1.47s-4.32-7.02-1.84-10.25c2.48-3.24,7.33-3.9,10.83-1.47,3.5,2.43,4.32,7.02,1.84,10.25Z"/>
    </g>
    <g>
      <path class="cls-19" d="M193.97,184.63c-2.48,3.24-7.33,3.9-10.83,1.47s-4.32-7.02-1.84-10.25,7.33-3.9,10.83-1.47,4.32,7.02,1.84,10.25Z"/>
      <path class="cls-21" d="M186.07,184.57c.79.32,3.25,1.18,6,.34,1.16-.35,2.02-.9,2.6-1.35-1.85,3.61-6.51,5.07-10.31,3.31-3.73-1.72-5.47-5.92-3.93-9.48.18.87.62,2.42,1.83,4.03,1.35,1.78,2.96,2.72,3.82,3.15Z"/>
      <path class="cls-4" d="M193.97,184.63c-2.48,3.24-7.33,3.9-10.83,1.47s-4.32-7.02-1.84-10.25,7.33-3.9,10.83-1.47,4.32,7.02,1.84,10.25Z"/>
    </g>
  </g>
  <g>
    <circle class="cls-18" cx="316.18" cy="270.69" r="9.95"/>
    <path class="cls-20" d="M318.35,275.09c.93-.58,3.68-2.45,4.79-6.01.47-1.5.5-2.85.44-3.81,2.58,4.86.73,10.93-3.98,13.49-4.63,2.52-10.49.95-13.24-3.54,1.08.52,3.1,1.31,5.74,1.34,2.93.03,5.15-.91,6.25-1.46Z"/>
    <circle class="cls-6" cx="316.18" cy="270.69" r="9.95"/>
  </g>
  <g>
    <circle class="cls-15" cx="182.45" cy="309.02" r="9.95"/>
    <path class="cls-17" d="M186.02,314.16c.93-.58,3.68-2.45,4.79-6.01.47-1.5.5-2.85.44-3.81,2.58,4.86.73,10.93-3.98,13.49-4.63,2.52-10.49.95-13.24-3.54,1.08.52,3.1,1.31,5.74,1.34,2.93.03,5.15-.91,6.25-1.46Z"/>
    <circle class="cls-12" cx="182.45" cy="309.02" r="9.95"/>
  </g>
  <g>
    <circle class="cls-15" cx="139.1" cy="270.5" r="17.68"/>
    <path class="cls-17" d="M145.44,279.64c1.65-1.02,6.54-4.35,8.52-10.68.83-2.67.89-5.07.77-6.78,4.58,8.64,1.3,19.42-7.07,23.98-8.22,4.48-18.65,1.69-23.53-6.3,1.92.92,5.51,2.33,10.21,2.37,5.21.05,9.16-1.61,11.1-2.59Z"/>
    <circle class="cls-2" cx="139.1" cy="270.5" r="17.68"/>
  </g>
  <g>
    <circle class="cls-18" cx="107.52" cy="339.9" r="24.81"/>
    <path class="cls-20" d="M114.29,351.76c2.32-1.44,9.18-6.11,11.96-15,1.17-3.75,1.26-7.11,1.09-9.52,6.43,12.13,1.83,27.26-9.92,33.66-11.54,6.29-26.18,2.37-33.04-8.84,2.7,1.29,7.74,3.27,14.33,3.33,7.32.07,12.85-2.26,15.58-3.64Z"/>
    <circle class="cls-5" cx="107.52" cy="339.9" r="24.81"/>
  </g>
  <line class="cls-5" x1="129.61" y1="285.7" x2="116.64" y2="317.15"/>
  <g>
    <circle class="cls-15" cx="168.47" cy="394.83" r="17.68"/>
    <path class="cls-17" d="M174.82,403.98c1.65-1.02,6.54-4.35,8.52-10.68.83-2.67.89-5.07.77-6.78,4.58,8.64,1.3,19.42-7.07,23.98-8.22,4.48-18.65,1.69-23.53-6.3,1.92.92,5.51,2.33,10.21,2.37,5.21.05,9.16-1.61,11.1-2.59Z"/>
    <circle class="cls-2" cx="168.47" cy="394.83" r="17.68"/>
  </g>
  <g>
    <circle class="cls-15" cx="42.74" cy="326.22" r="17.68"/>
    <path class="cls-17" d="M49.08,335.36c1.65-1.02,6.54-4.35,8.52-10.68.83-2.67.89-5.07.77-6.78,4.58,8.64,1.3,19.42-7.07,23.98-8.22,4.48-18.65,1.69-23.53-6.3,1.92.92,5.51,2.33,10.21,2.37,5.21.05,9.16-1.61,11.1-2.59Z"/>
    <circle class="cls-2" cx="42.74" cy="326.22" r="17.68"/>
  </g>
  <g>
    <circle class="cls-15" cx="84.89" cy="401.19" r="17.68"/>
    <path class="cls-17" d="M91.23,410.33c1.65-1.02,6.54-4.35,8.52-10.68.83-2.67.89-5.07.77-6.78,4.58,8.64,1.3,19.42-7.07,23.98-8.22,4.48-18.65,1.69-23.53-6.3,1.92.92,5.51,2.33,10.21,2.37,5.21.05,9.16-1.61,11.1-2.59Z"/>
    <circle class="cls-2" cx="84.89" cy="401.19" r="17.68"/>
  </g>
  <line class="cls-5" x1="123.4" y1="360.92" x2="151.92" y2="387.04"/>
  <line class="cls-5" x1="98.65" y1="364.84" x2="89.5" y2="384.03"/>
  <line class="cls-5" x1="59.92" y1="330.06" x2="81.9" y2="334.96"/>
  <line class="cls-5" x1="205.59" y1="341.8" x2="175.23" y2="379.87"/>
  <polygon class="cls-13" points="187.86 315.39 208.53 313.35 198.77 333.06 187.86 315.39 187.86 315.39"/>
  <line class="cls-12" x1="189.97" y1="313.96" x2="206.72" y2="317.32"/>
  <line class="cls-10" x1="286.65" y1="280.41" x2="214.35" y2="332.66"/>
  <line class="cls-2" x1="249.06" y1="355.31" x2="230.12" y2="341.13"/>
  <g>
    <circle class="cls-18" cx="287.47" cy="278.22" r="11.1"/>
    <path class="cls-20" d="M289.77,283.18c1.04-.64,4.11-2.73,5.35-6.71.52-1.68.56-3.18.49-4.26,2.88,5.43.82,12.2-4.44,15.06-5.16,2.81-11.71,1.06-14.78-3.96,1.21.58,3.46,1.46,6.41,1.49,3.28.03,5.75-1.01,6.97-1.63Z"/>
    <circle class="cls-12" cx="287.47" cy="278.22" r="11.1"/>
  </g>
  <line class="cls-3" x1="288.71" y1="251.17" x2="286.83" y2="267.32"/>
  <line class="cls-12" x1="300.19" y1="299.02" x2="292.85" y2="288.05"/>
  <polygon class="cls-13" points="308.5 274.27 298.19 278.27 297.85 271.27 308.5 274.27"/>
  <line class="cls-9" x1="307.37" y1="270.88" x2="294.74" y2="270.03"/>
  <line class="cls-5" x1="116.03" y1="202.69" x2="129.05" y2="240.47"/>
  <g>
    <circle class="cls-16" cx="157.52" cy="287.52" r="8.91"/>
    <path class="cls-14" d="M160.72,292.13c.83-.52,3.3-2.19,4.29-5.38.42-1.35.45-2.55.39-3.42,2.31,4.35.66,9.78-3.56,12.08-4.14,2.26-9.39.85-11.86-3.17.97.46,2.78,1.17,5.14,1.2,2.63.02,4.61-.81,5.59-1.3Z"/>
    <circle class="cls-4" cx="157.52" cy="287.52" r="8.91"/>
  </g>
  <g>
    <circle class="cls-16" cx="159.66" cy="258.15" r="8.91"/>
    <path class="cls-14" d="M162.86,262.76c.83-.52,3.3-2.19,4.29-5.38.42-1.35.45-2.55.39-3.42,2.31,4.35.66,9.78-3.56,12.08-4.14,2.26-9.39.85-11.86-3.17.97.46,2.78,1.17,5.14,1.2,2.63.02,4.61-.81,5.59-1.3Z"/>
    <circle class="cls-4" cx="159.66" cy="258.15" r="8.91"/>
  </g>
  <g>
    <circle class="cls-16" cx="114.26" cy="269.9" r="8.91"/>
    <path class="cls-14" d="M117.46,274.51c.83-.52,3.3-2.19,4.29-5.38.42-1.35.45-2.55.39-3.42,2.31,4.35.66,9.78-3.56,12.08-4.14,2.26-9.39.85-11.86-3.17.97.46,2.78,1.17,5.14,1.2,2.63.02,4.61-.81,5.59-1.3Z"/>
    <circle class="cls-4" cx="114.26" cy="269.9" r="8.91"/>
  </g>
  <g>
    <circle class="cls-16" cx="129.75" cy="293.4" r="8.91"/>
    <path class="cls-14" d="M132.95,298.01c.83-.52,3.3-2.19,4.29-5.38.42-1.35.45-2.55.39-3.42,2.31,4.35.66,9.78-3.56,12.08-4.14,2.26-9.39.85-11.86-3.17.97.46,2.78,1.17,5.14,1.2,2.63.02,4.61-.81,5.59-1.3Z"/>
    <circle class="cls-4" cx="129.75" cy="293.4" r="8.91"/>
  </g>
  <line class="cls-12" x1="141.3" y1="250.63" x2="152.21" y2="254.16"/>
  <line class="cls-12" x1="118.68" y1="262.15" x2="126.71" y2="254.19"/>
  <line class="cls-12" x1="123.84" y1="287.27" x2="117.83" y2="277.67"/>
  <line class="cls-12" x1="149.06" y1="290.29" x2="138.27" y2="292.77"/>
  <line class="cls-12" x1="159.22" y1="266.76" x2="158.83" y2="278.56"/>
  <g>
    <circle class="cls-19" cx="132.95" cy="248" r="8.91"/>
    <path class="cls-21" d="M136.15,252.61c.83-.52,3.3-2.19,4.29-5.38.42-1.35.45-2.55.39-3.42,2.31,4.35.66,9.78-3.56,12.08-4.14,2.26-9.39.85-11.86-3.17.97.46,2.78,1.17,5.14,1.2,2.63.02,4.61-.81,5.59-1.3Z"/>
    <circle class="cls-11" cx="132.95" cy="248" r="8.91"/>
  </g>
  <line class="cls-5" x1="57.57" y1="219.19" x2="109.26" y2="190.83"/>
  <g>
    <circle class="cls-19" cx="159.66" cy="258.15" r="8.91"/>
    <path class="cls-21" d="M162.86,262.76c.83-.52,3.3-2.19,4.29-5.38.42-1.35.45-2.55.39-3.42,2.31,4.35.66,9.78-3.56,12.08-4.14,2.26-9.39.85-11.86-3.17.97.46,2.78,1.17,5.14,1.2,2.63.02,4.61-.81,5.59-1.3Z"/>
    <circle class="cls-11" cx="159.66" cy="258.15" r="8.91"/>
  </g>
  <g>
    <circle class="cls-19" cx="157.52" cy="287.52" r="8.91"/>
    <path class="cls-21" d="M160.72,292.13c.83-.52,3.3-2.19,4.29-5.38.42-1.35.45-2.55.39-3.42,2.31,4.35.66,9.78-3.56,12.08-4.14,2.26-9.39.85-11.86-3.17.97.46,2.78,1.17,5.14,1.2,2.63.02,4.61-.81,5.59-1.3Z"/>
    <circle class="cls-11" cx="157.52" cy="287.52" r="8.91"/>
  </g>
  <g>
    <circle class="cls-19" cx="129.75" cy="293.4" r="8.91"/>
    <path class="cls-21" d="M132.95,298.01c.83-.52,3.3-2.19,4.29-5.38.42-1.35.45-2.55.39-3.42,2.31,4.35.66,9.78-3.56,12.08-4.14,2.26-9.39.85-11.86-3.17.97.46,2.78,1.17,5.14,1.2,2.63.02,4.61-.81,5.59-1.3Z"/>
    <circle class="cls-11" cx="129.75" cy="293.4" r="8.91"/>
  </g>
  <g>
    <circle class="cls-19" cx="114.26" cy="269.9" r="8.91"/>
    <path class="cls-21" d="M117.46,274.51c.83-.52,3.3-2.19,4.29-5.38.42-1.35.45-2.55.39-3.42,2.31,4.35.66,9.78-3.56,12.08-4.14,2.26-9.39.85-11.86-3.17.97.46,2.78,1.17,5.14,1.2,2.63.02,4.61-.81,5.59-1.3Z"/>
    <circle class="cls-11" cx="114.26" cy="269.9" r="8.91"/>
  </g>
  <g>
    <line class="cls-7" x1="33.14" y1="213.33" x2="46.27" y2="218.36"/>
    <line class="cls-7" x1="11.29" y1="230.13" x2="25.4" y2="213.54"/>
    <line class="cls-7" x1="20.85" y1="252.66" x2="10.92" y2="234.92"/>
    <line class="cls-7" x1="46.53" y1="250.35" x2="28.38" y2="254.59"/>
    <line class="cls-7" x1="52.94" y1="225.42" x2="51.13" y2="246.92"/>
    <g>
      <circle class="cls-19" cx="53.21" cy="220.8" r="8.48"/>
      <path class="cls-21" d="M56.25,225.19c.79-.49,3.14-2.09,4.09-5.13.4-1.28.43-2.43.37-3.25,2.2,4.14.63,9.32-3.39,11.51-3.94,2.15-8.95.81-11.29-3.02.92.44,2.65,1.12,4.9,1.14,2.5.02,4.39-.77,5.33-1.24Z"/>
      <circle class="cls-11" cx="53.21" cy="220.8" r="8.48"/>
    </g>
    <g>
      <circle class="cls-19" cx="51.21" cy="248.78" r="8.48"/>
      <path class="cls-21" d="M54.26,253.17c.79-.49,3.14-2.09,4.09-5.13.4-1.28.43-2.43.37-3.25,2.2,4.14.63,9.32-3.39,11.51-3.94,2.15-8.95.81-11.29-3.02.92.44,2.65,1.12,4.9,1.14,2.5.02,4.39-.77,5.33-1.24Z"/>
      <circle class="cls-11" cx="51.21" cy="248.78" r="8.48"/>
    </g>
    <g>
      <circle class="cls-19" cx="24.77" cy="254.41" r="8.48"/>
      <path class="cls-21" d="M27.81,258.8c.79-.49,3.14-2.09,4.09-5.13.4-1.28.43-2.43.37-3.25,2.2,4.14.63,9.32-3.39,11.51-3.94,2.15-8.95.81-11.29-3.02.92.44,2.65,1.12,4.9,1.14,2.5.02,4.39-.77,5.33-1.24Z"/>
      <circle class="cls-11" cx="24.77" cy="254.41" r="8.48"/>
    </g>
    <g>
      <circle class="cls-19" cx="9.98" cy="232.05" r="8.48"/>
      <path class="cls-21" d="M13.03,236.44c.79-.49,3.14-2.09,4.09-5.13.4-1.28.43-2.43.37-3.25,2.2,4.14.63,9.32-3.39,11.51-3.94,2.15-8.95.81-11.29-3.02.92.44,2.65,1.12,4.9,1.14,2.5.02,4.39-.77,5.33-1.24Z"/>
      <circle class="cls-11" cx="9.98" cy="232.05" r="8.48"/>
    </g>
    <g>
      <circle class="cls-19" cx="27.76" cy="211.17" r="8.48"/>
      <path class="cls-21" d="M30.8,215.56c.79-.49,3.14-2.09,4.09-5.13.4-1.28.43-2.43.37-3.25,2.2,4.14.63,9.32-3.39,11.51-3.94,2.15-8.95.81-11.29-3.02.92.44,2.65,1.12,4.9,1.14,2.5.02,4.39-.77,5.33-1.24Z"/>
      <circle class="cls-11" cx="27.76" cy="211.17" r="8.48"/>
    </g>
  </g>
  <line class="cls-5" x1="101.55" y1="167.24" x2="89.96" y2="137.97"/>
  <polygon class="cls-13" points="146.56 199.77 112.32 208.9 117.58 179.37 146.56 199.77"/>
  <g>
    <circle class="cls-18" cx="109.26" cy="190.83" r="24.81"/>
    <path class="cls-20" d="M116.03,202.69c2.32-1.44,9.18-6.11,11.96-15,1.17-3.75,1.26-7.11,1.09-9.52,6.43,12.13,1.83,27.26-9.92,33.66-11.54,6.29-26.18,2.37-33.04-8.84,2.7,1.29,7.74,3.27,14.33,3.33,7.32.07,12.85-2.26,15.58-3.64Z"/>
    <circle class="cls-5" cx="109.26" cy="190.83" r="24.81"/>
  </g>
  <line class="cls-6" x1="135.17" y1="190.67" x2="146.82" y2="197.56"/>
  <line class="cls-9" x1="131.77" y1="203.79" x2="146.77" y2="201.4"/>
  <line class="cls-5" x1="156.06" y1="75.63" x2="106.66" y2="92.66"/>
  <g>
    <line class="cls-7" x1="107.88" y1="98.32" x2="111.08" y2="112.01"/>
    <line class="cls-7" x1="81.72" y1="89.65" x2="103.37" y2="92.03"/>
    <line class="cls-7" x1="68.43" y1="110.2" x2="77.55" y2="92.03"/>
    <line class="cls-7" x1="84.75" y1="130.17" x2="71.05" y2="117.52"/>
    <line class="cls-7" x1="108.98" y1="121.49" x2="90.16" y2="132.05"/>
    <g>
      <circle class="cls-19" cx="112.96" cy="119.13" r="8.48"/>
      <path class="cls-21" d="M111.03,124.11c.85.38,3.49,1.43,6.54.51,1.29-.39,2.25-1.01,2.9-1.52-2.2,4.14-7.36,5.74-11.43,3.64-3.99-2.06-5.69-6.95-3.83-11.04.15,1.01.56,2.82,1.8,4.69,1.38,2.08,3.1,3.2,4.02,3.71Z"/>
      <circle class="cls-4" cx="112.96" cy="119.13" r="8.48"/>
    </g>
    <g>
      <circle class="cls-19" cx="88.67" cy="133.17" r="8.48"/>
      <path class="cls-21" d="M86.74,138.15c.85.38,3.49,1.43,6.54.51,1.29-.39,2.25-1.01,2.9-1.52-2.2,4.14-7.36,5.74-11.43,3.64-3.99-2.06-5.69-6.95-3.83-11.04.15,1.01.56,2.82,1.8,4.69,1.38,2.08,3.1,3.2,4.02,3.71Z"/>
      <circle class="cls-4" cx="88.67" cy="133.17" r="8.48"/>
    </g>
    <g>
      <circle class="cls-19" cx="69.18" cy="114.43" r="8.48"/>
      <path class="cls-21" d="M67.25,119.41c.85.38,3.49,1.43,6.54.51,1.29-.39,2.25-1.01,2.9-1.52-2.2,4.14-7.36,5.74-11.43,3.64-3.99-2.06-5.69-6.95-3.83-11.04.15,1.01.56,2.82,1.8,4.69,1.38,2.08,3.1,3.2,4.02,3.71Z"/>
      <circle class="cls-4" cx="69.18" cy="114.43" r="8.48"/>
    </g>
    <g>
      <circle class="cls-19" cx="79.4" cy="89.65" r="8.48"/>
      <path class="cls-21" d="M77.47,94.63c.85.38,3.49,1.43,6.54.51,1.29-.39,2.25-1.01,2.9-1.52-2.2,4.14-7.36,5.74-11.43,3.64-3.99-2.06-5.69-6.95-3.83-11.04.15,1.01.56,2.82,1.8,4.69,1.38,2.08,3.1,3.2,4.02,3.71Z"/>
      <circle class="cls-4" cx="79.4" cy="89.65" r="8.48"/>
    </g>
    <g>
      <circle class="cls-19" cx="106.66" cy="92.66" r="8.48"/>
      <path class="cls-21" d="M104.73,97.64c.85.38,3.49,1.43,6.54.51,1.29-.39,2.25-1.01,2.9-1.52-2.2,4.14-7.36,5.74-11.43,3.64-3.99-2.06-5.69-6.95-3.83-11.04.15,1.01.56,2.82,1.8,4.69,1.38,2.08,3.1,3.2,4.02,3.71Z"/>
      <circle class="cls-4" cx="106.66" cy="92.66" r="8.48"/>
    </g>
  </g>
  <line class="cls-3" x1="177.39" y1="110.28" x2="159.94" y2="73.96"/>
  <line class="cls-3" x1="234.87" y1="133.36" x2="198.65" y2="129.85"/>
  <g>
    <line class="cls-7" x1="195.28" y1="131.75" x2="187.19" y2="136.49"/>
    <line class="cls-7" x1="195.65" y1="113.38" x2="198.4" y2="127.64"/>
    <line class="cls-7" x1="179.94" y1="108.97" x2="193.31" y2="111.2"/>
    <line class="cls-7" x1="170.44" y1="123.3" x2="175.8" y2="112.08"/>
    <line class="cls-7" x1="180.74" y1="137.02" x2="170.31" y2="127.12"/>
    <g>
      <circle class="cls-19" cx="183.03" cy="139.08" r="5.65"/>
      <path class="cls-21" d="M179.48,138.84c-.07.62-.22,2.5.96,4.26.5.74,1.09,1.24,1.54,1.55-3.07-.58-5.11-3.56-4.57-6.56.53-2.95,3.31-4.99,6.28-4.62-.61.3-1.68.91-2.63,2.07-1.05,1.29-1.43,2.61-1.57,3.29Z"/>
      <circle class="cls-4" cx="183.03" cy="139.08" r="5.65"/>
    </g>
    <g>
      <circle class="cls-19" cx="169.31" cy="126.38" r="5.65"/>
      <path class="cls-21" d="M165.75,126.14c-.07.62-.22,2.5.96,4.26.5.74,1.09,1.24,1.54,1.55-3.07-.58-5.11-3.56-4.57-6.56.53-2.95,3.31-4.99,6.28-4.62-.61.3-1.68.91-2.63,2.07-1.05,1.29-1.43,2.61-1.57,3.29Z"/>
      <circle class="cls-4" cx="169.31" cy="126.38" r="5.65"/>
    </g>
    <g>
      <circle class="cls-19" cx="177.39" cy="110.28" r="5.65"/>
      <path class="cls-21" d="M173.84,110.03c-.07.62-.22,2.5.96,4.26.5.74,1.09,1.24,1.54,1.55-3.07-.58-5.11-3.56-4.57-6.56.53-2.95,3.31-4.99,6.28-4.62-.61.3-1.68.91-2.63,2.07-1.05,1.29-1.43,2.61-1.57,3.29Z"/>
      <circle class="cls-4" cx="177.39" cy="110.28" r="5.65"/>
    </g>
    <g>
      <circle class="cls-19" cx="195.19" cy="111.9" r="5.65"/>
      <path class="cls-21" d="M191.64,111.66c-.07.62-.22,2.5.96,4.26.5.74,1.09,1.24,1.54,1.55-3.07-.58-5.11-3.56-4.57-6.56.53-2.95,3.31-4.99,6.28-4.62-.61.3-1.68.91-2.63,2.07-1.05,1.29-1.43,2.61-1.57,3.29Z"/>
      <circle class="cls-4" cx="195.19" cy="111.9" r="5.65"/>
    </g>
    <g>
      <circle class="cls-19" cx="198.65" cy="129.85" r="5.65"/>
      <path class="cls-21" d="M195.1,129.61c-.07.62-.22,2.5.96,4.26.5.74,1.09,1.24,1.54,1.55-3.07-.58-5.11-3.56-4.57-6.56.53-2.95,3.31-4.99,6.28-4.62-.61.3-1.68.91-2.63,2.07-1.05,1.29-1.43,2.61-1.57,3.29Z"/>
      <circle class="cls-4" cx="198.65" cy="129.85" r="5.65"/>
    </g>
  </g>
  <line class="cls-12" x1="238.67" y1="100.99" x2="234.01" y2="135.52"/>
  <g>
    <line class="cls-2" x1="235.77" y1="97.91" x2="229.15" y2="91.28"/>
    <line class="cls-2" x1="253.64" y1="93.63" x2="240.54" y2="99.89"/>
    <line class="cls-2" x1="253.95" y1="77.32" x2="255.16" y2="90.82"/>
    <line class="cls-2" x1="237.69" y1="71.74" x2="249.89" y2="74.1"/>
    <line class="cls-2" x1="227.01" y1="85.17" x2="233.96" y2="72.58"/>
    <g>
      <circle class="cls-19" cx="225.59" cy="87.91" r="5.65"/>
      <path class="cls-21" d="M224.93,84.41c-.62.08-2.48.42-3.88,2.01-.59.67-.92,1.36-1.11,1.88-.21-3.12,2.15-5.84,5.19-6.08,2.99-.23,5.67,1.94,6.05,4.91-.44-.52-1.31-1.4-2.67-2.03-1.52-.69-2.88-.73-3.58-.69Z"/>
      <circle class="cls-4" cx="225.59" cy="87.91" r="5.65"/>
    </g>
    <g>
      <circle class="cls-19" cx="234.41" cy="71.42" r="5.65"/>
      <path class="cls-21" d="M233.76,67.92c-.62.08-2.48.42-3.88,2.01-.59.67-.92,1.36-1.11,1.88-.21-3.12,2.15-5.84,5.19-6.08,2.99-.23,5.67,1.94,6.05,4.91-.44-.52-1.31-1.4-2.67-2.03-1.52-.69-2.88-.73-3.58-.69Z"/>
      <circle class="cls-4" cx="234.41" cy="71.42" r="5.65"/>
    </g>
    <g>
      <circle class="cls-19" cx="252.04" cy="75.19" r="5.65"/>
      <path class="cls-21" d="M251.38,71.69c-.62.08-2.48.42-3.88,2.01-.59.67-.92,1.36-1.11,1.88-.21-3.12,2.15-5.84,5.19-6.08,2.99-.23,5.67,1.94,6.05,4.91-.44-.52-1.31-1.4-2.67-2.03-1.52-.69-2.88-.73-3.58-.69Z"/>
      <circle class="cls-4" cx="252.04" cy="75.19" r="5.65"/>
    </g>
    <g>
      <circle class="cls-19" cx="254.95" cy="92.82" r="5.65"/>
      <path class="cls-21" d="M254.29,89.32c-.62.08-2.48.42-3.88,2.01-.59.67-.92,1.36-1.11,1.88-.21-3.12,2.15-5.84,5.19-6.08,2.99-.23,5.67,1.94,6.05,4.91-.44-.52-1.31-1.4-2.67-2.03-1.52-.69-2.88-.73-3.58-.69Z"/>
      <circle class="cls-4" cx="254.95" cy="92.82" r="5.65"/>
    </g>
    <g>
      <circle class="cls-19" cx="238.45" cy="100.69" r="5.65"/>
      <path class="cls-21" d="M237.79,97.19c-.62.08-2.48.42-3.88,2.01-.59.67-.92,1.36-1.11,1.88-.21-3.12,2.15-5.84,5.19-6.08,2.99-.23,5.67,1.94,6.05,4.91-.44-.52-1.31-1.4-2.67-2.03-1.52-.69-2.88-.73-3.58-.69Z"/>
      <circle class="cls-4" cx="238.45" cy="100.69" r="5.65"/>
    </g>
  </g>
  <line class="cls-12" x1="234.87" y1="133.36" x2="241.84" y2="165.07"/>
  <g>
    <line class="cls-2" x1="237.23" y1="190.05" x2="232.49" y2="181.96"/>
    <line class="cls-2" x1="255.6" y1="190.39" x2="241.35" y2="193.16"/>
    <line class="cls-2" x1="260" y1="174.68" x2="257.78" y2="188.05"/>
    <line class="cls-2" x1="245.66" y1="165.19" x2="256.88" y2="170.54"/>
    <line class="cls-2" x1="231.95" y1="175.51" x2="241.84" y2="165.07"/>
    <g>
      <circle class="cls-19" cx="229.89" cy="177.81" r="5.65"/>
      <path class="cls-21" d="M230.13,174.25c-.62-.07-2.5-.22-4.26.97-.74.5-1.23,1.09-1.55,1.54.58-3.07,3.55-5.11,6.55-4.58,2.95.52,5,3.3,4.62,6.27-.3-.61-.91-1.68-2.08-2.63-1.29-1.05-2.61-1.43-3.29-1.57Z"/>
      <circle class="cls-4" cx="229.89" cy="177.81" r="5.65"/>
    </g>
    <g>
      <circle class="cls-19" cx="242.57" cy="164.06" r="5.65"/>
      <path class="cls-21" d="M242.81,160.51c-.62-.07-2.5-.22-4.26.97-.74.5-1.23,1.09-1.55,1.54.58-3.07,3.55-5.11,6.55-4.58,2.95.52,5,3.3,4.62,6.27-.3-.61-.91-1.68-2.08-2.63-1.29-1.05-2.61-1.43-3.29-1.57Z"/>
      <circle class="cls-4" cx="242.57" cy="164.06" r="5.65"/>
    </g>
    <g>
      <circle class="cls-19" cx="258.69" cy="172.14" r="5.65"/>
      <path class="cls-21" d="M258.93,168.58c-.62-.07-2.5-.22-4.26.97-.74.5-1.23,1.09-1.55,1.54.58-3.07,3.55-5.11,6.55-4.58,2.95.52,5,3.3,4.62,6.27-.3-.61-.91-1.68-2.08-2.63-1.29-1.05-2.61-1.43-3.29-1.57Z"/>
      <circle class="cls-4" cx="258.69" cy="172.14" r="5.65"/>
    </g>
    <g>
      <circle class="cls-19" cx="257.08" cy="189.93" r="5.65"/>
      <path class="cls-21" d="M257.32,186.38c-.62-.07-2.5-.22-4.26.97-.74.5-1.23,1.09-1.55,1.54.58-3.07,3.55-5.11,6.55-4.58,2.95.52,5,3.3,4.62,6.27-.3-.61-.91-1.68-2.08-2.63-1.29-1.05-2.61-1.43-3.29-1.57Z"/>
      <circle class="cls-4" cx="257.08" cy="189.93" r="5.65"/>
    </g>
    <g>
      <circle class="cls-19" cx="239.13" cy="193.41" r="5.65"/>
      <path class="cls-21" d="M239.37,189.86c-.62-.07-2.5-.22-4.26.97-.74.5-1.23,1.09-1.55,1.54.58-3.07,3.55-5.11,6.55-4.58,2.95.52,5,3.3,4.62,6.27-.3-.61-.91-1.68-2.08-2.63-1.29-1.05-2.61-1.43-3.29-1.57Z"/>
      <circle class="cls-4" cx="239.13" cy="193.41" r="5.65"/>
    </g>
  </g>
  <line class="cls-12" x1="238.42" y1="134.53" x2="273.82" y2="138.66"/>
  <g>
    <circle class="cls-18" cx="234.87" cy="133.36" r="12.4"/>
    <path class="cls-20" d="M237.5,138.61c1.16-.72,4.59-3.05,5.97-7.49.58-1.87.63-3.55.54-4.75,3.21,6.06.91,13.62-4.96,16.82-5.77,3.14-13.08,1.18-16.5-4.42,1.35.65,3.87,1.63,7.16,1.66,3.66.03,6.42-1.13,7.79-1.82Z"/>
    <circle class="cls-9" cx="234.87" cy="133.36" r="12.4"/>
  </g>
  <g>
    <line class="cls-3" x1="280.1" y1="149.13" x2="276.04" y2="142.22"/>
    <line class="cls-3" x1="295.8" y1="149.42" x2="283.62" y2="151.78"/>
    <line class="cls-3" x1="298.69" y1="135.35" x2="297.66" y2="147.42"/>
    <line class="cls-3" x1="287.3" y1="127.89" x2="296.89" y2="132.46"/>
    <line class="cls-3" x1="275.58" y1="136.7" x2="284.04" y2="127.78"/>
    <g>
      <circle class="cls-19" cx="273.82" cy="138.66" r="4.83"/>
      <path class="cls-21" d="M274.03,135.63c-.53-.06-2.14-.19-3.64.83-.63.43-1.06.93-1.32,1.32.5-2.63,3.04-4.37,5.6-3.91,2.52.45,4.27,2.82,3.95,5.36-.25-.52-.78-1.44-1.78-2.25-1.11-.9-2.23-1.22-2.81-1.34Z"/>
      <circle class="cls-4" cx="273.82" cy="138.66" r="4.83"/>
    </g>
    <g>
      <circle class="cls-19" cx="284.66" cy="126.92" r="4.83"/>
      <path class="cls-21" d="M284.87,123.89c-.53-.06-2.14-.19-3.64.83-.63.43-1.06.93-1.32,1.32.5-2.63,3.04-4.37,5.6-3.91,2.52.45,4.27,2.82,3.95,5.36-.25-.52-.78-1.44-1.78-2.25-1.11-.9-2.23-1.22-2.81-1.34Z"/>
      <circle class="cls-4" cx="284.66" cy="126.92" r="4.83"/>
    </g>
    <g>
      <circle class="cls-19" cx="298.43" cy="133.82" r="4.83"/>
      <path class="cls-21" d="M298.64,130.78c-.53-.06-2.14-.19-3.64.83-.63.43-1.06.93-1.32,1.32.5-2.63,3.04-4.37,5.6-3.91,2.52.45,4.27,2.82,3.95,5.36-.25-.52-.78-1.44-1.78-2.25-1.11-.9-2.23-1.22-2.81-1.34Z"/>
      <circle class="cls-4" cx="298.43" cy="133.82" r="4.83"/>
    </g>
    <g>
      <circle class="cls-19" cx="297.06" cy="149.03" r="4.83"/>
      <path class="cls-21" d="M297.27,145.99c-.53-.06-2.14-.19-3.64.83-.63.43-1.06.93-1.32,1.32.5-2.63,3.04-4.37,5.6-3.91,2.52.45,4.27,2.82,3.95,5.36-.25-.52-.78-1.44-1.78-2.25-1.11-.9-2.23-1.22-2.81-1.34Z"/>
      <circle class="cls-4" cx="297.06" cy="149.03" r="4.83"/>
    </g>
    <g>
      <circle class="cls-19" cx="281.72" cy="152" r="4.83"/>
      <path class="cls-21" d="M281.93,148.97c-.53-.06-2.14-.19-3.64.83-.63.43-1.06.93-1.32,1.32.5-2.63,3.04-4.37,5.6-3.91,2.52.45,4.27,2.82,3.95,5.36-.25-.52-.78-1.44-1.78-2.25-1.11-.9-2.23-1.22-2.81-1.34Z"/>
      <circle class="cls-4" cx="281.72" cy="152" r="4.83"/>
    </g>
  </g>
  <g>
    <circle class="cls-18" cx="215.48" cy="329.82" r="16.36"/>
    <path class="cls-20" d="M218.95,336.74c1.53-.95,6.05-4.03,7.88-9.89.77-2.47.83-4.69.72-6.27,4.24,7.99,1.21,17.97-6.54,22.19-7.61,4.14-17.25,1.56-21.77-5.83,1.78.85,5.1,2.16,9.45,2.2,4.82.05,8.47-1.49,10.27-2.4Z"/>
    <circle class="cls-2" cx="215.48" cy="329.82" r="16.36"/>
  </g>
  <line class="cls-1" x1="277.09" y1="286.17" x2="232.05" y2="318.98"/>
  <line class="cls-3" x1="168.27" y1="34.2" x2="159.94" y2="73.96"/>
  <g>
    <circle class="cls-18" cx="159.94" cy="73.96" r="16.36"/>
    <path class="cls-20" d="M163.42,80.88c1.53-.95,6.05-4.03,7.88-9.89.77-2.47.83-4.69.72-6.27,4.24,7.99,1.21,17.97-6.54,22.19-7.61,4.14-17.25,1.56-21.77-5.83,1.78.85,5.1,2.16,9.45,2.2,4.82.05,8.47-1.49,10.27-2.4Z"/>
    <circle class="cls-12" cx="159.94" cy="73.96" r="16.36"/>
  </g>
  <g>
    <line class="cls-7" x1="182.26" y1="34.22" x2="172.88" y2="34.22"/>
    <line class="cls-7" x1="191.85" y1="18.55" x2="187.02" y2="32.24"/>
    <line class="cls-7" x1="180.52" y1="6.81" x2="190.93" y2="15.48"/>
    <line class="cls-7" x1="165.08" y1="14.38" x2="175.37" y2="7.4"/>
    <line class="cls-7" x1="167.05" y1="31.43" x2="163.04" y2="17.61"/>
    <g>
      <circle class="cls-19" cx="167.98" cy="34.36" r="5.65"/>
      <path class="cls-21" d="M165.04,32.36c-.38.49-1.46,2.05-1.32,4.17.06.89.31,1.62.54,2.11-2.36-2.06-2.61-5.65-.64-7.97,1.94-2.28,5.38-2.64,7.75-.81-.68-.05-1.91-.06-3.32.46-1.56.58-2.55,1.53-3.02,2.04Z"/>
      <circle class="cls-4" cx="167.98" cy="34.36" r="5.65"/>
    </g>
    <g>
      <circle class="cls-19" cx="162.54" cy="16.47" r="5.65"/>
      <path class="cls-21" d="M159.6,14.47c-.38.49-1.46,2.05-1.32,4.17.06.89.31,1.62.54,2.11-2.36-2.06-2.61-5.65-.64-7.97,1.94-2.28,5.38-2.64,7.75-.81-.68-.05-1.91-.06-3.32.46-1.56.58-2.55,1.53-3.02,2.04Z"/>
      <circle class="cls-4" cx="162.54" cy="16.47" r="5.65"/>
    </g>
    <g>
      <circle class="cls-19" cx="177.66" cy="6.65" r="5.65"/>
      <path class="cls-21" d="M174.72,4.65c-.38.49-1.46,2.05-1.32,4.17.06.89.31,1.62.54,2.11-2.36-2.06-2.61-5.65-.64-7.97,1.94-2.28,5.38-2.64,7.75-.81-.68-.05-1.91-.06-3.32.46-1.56.58-2.55,1.53-3.02,2.04Z"/>
      <circle class="cls-4" cx="177.66" cy="6.65" r="5.65"/>
    </g>
    <g>
      <circle class="cls-19" cx="192.2" cy="17.04" r="5.65"/>
      <path class="cls-21" d="M189.26,15.04c-.38.49-1.46,2.05-1.32,4.17.06.89.31,1.62.54,2.11-2.36-2.06-2.61-5.65-.64-7.97,1.94-2.28,5.38-2.64,7.75-.81-.68-.05-1.91-.06-3.32.46-1.56.58-2.55,1.53-3.02,2.04Z"/>
      <circle class="cls-4" cx="192.2" cy="17.04" r="5.65"/>
    </g>
    <g>
      <circle class="cls-19" cx="186.12" cy="34.28" r="5.65"/>
      <path class="cls-21" d="M183.18,32.28c-.38.49-1.46,2.05-1.32,4.17.06.89.31,1.62.54,2.11-2.36-2.06-2.61-5.65-.64-7.97,1.94-2.28,5.38-2.64,7.75-.81-.68-.05-1.91-.06-3.32.46-1.56.58-2.55,1.53-3.02,2.04Z"/>
      <circle class="cls-4" cx="186.12" cy="34.28" r="5.65"/>
    </g>
  </g>
  <g>
    <circle class="cls-18" cx="305.89" cy="307.51" r="9.95"/>
    <path class="cls-20" d="M308.05,311.91c.93-.58,3.68-2.45,4.79-6.01.47-1.5.5-2.85.44-3.81,2.58,4.86.73,10.93-3.98,13.49-4.63,2.52-10.49.95-13.24-3.54,1.08.52,3.1,1.31,5.74,1.34,2.93.03,5.15-.91,6.25-1.46Z"/>
    <circle class="cls-6" cx="305.89" cy="307.51" r="9.95"/>
  </g>
  <g>
    <circle class="cls-18" cx="289.1" cy="241.71" r="9.95"/>
    <path class="cls-20" d="M291.27,246.11c.93-.58,3.68-2.45,4.79-6.01.47-1.5.5-2.85.44-3.81,2.58,4.86.73,10.93-3.98,13.49-4.63,2.52-10.49.95-13.24-3.54,1.08.52,3.1,1.31,5.74,1.34,2.93.03,5.15-.91,6.25-1.46Z"/>
    <circle class="cls-6" cx="289.1" cy="241.71" r="9.95"/>
  </g>
  <line class="cls-8" x1="288.62" y1="252.95" x2="287.12" y2="264.44"/>
  <line class="cls-8" x1="299.61" y1="298.03" x2="293.76" y2="289.13"/>
  <path class="cls-22" d="M298.86,272.58c.86-1.22,1.94-1.49,3.28-1.38,1.18-.07,2.37-.07,3.55,0,.06,0,.1.05.1.11-.98.64-2.23,1.02-3.33,1.46-.55.2-1.07.57-1.67.54-.6-.02-1.21-.11-1.89-.54-.07-.04-.09-.13-.04-.2h0Z"/>
  <g>
    <line class="cls-12" x1="310.6" y1="336.95" x2="307.13" y2="316.39"/>
    <line class="cls-8" x1="310.38" y1="335.06" x2="307.7" y2="318.31"/>
  </g>
  <polygon class="cls-13" points="334.32 319.47 312.69 316.91 314.62 310.19 334.32 319.47"/>
  <line class="cls-9" x1="334.76" y1="316.93" x2="313.49" y2="310.96"/>
  <path class="cls-22" d="M315.64,313.28c1.57-.24,3.07-.16,4.55,0,1.49.15,2.89.71,4.33,1.09l4.31,1.19c1.43.43,2.87.83,4.29,1.28.05.02.08.07.07.13-.01.05-.06.07-.11.07-1.49-.14-2.97-.33-4.45-.5l-4.43-.6c-1.47-.21-2.98-.25-4.41-.7-1.43-.43-2.85-.94-4.19-1.77-.05-.03-.07-.1-.03-.15.02-.03.04-.04.07-.05Z"/>
  <line class="cls-2" x1="311.66" y1="347.06" x2="273.03" y2="359.21"/>
  <g>
    <circle class="cls-15" cx="260.44" cy="363.24" r="13.21"/>
    <path class="cls-17" d="M265.19,370.08c1.24-.76,4.89-3.25,6.37-7.99.62-2,.67-3.79.58-5.07,3.42,6.46.97,14.52-5.28,17.92-6.15,3.35-13.94,1.26-17.59-4.71,1.44.69,4.12,1.74,7.63,1.77,3.9.04,6.84-1.2,8.3-1.94Z"/>
    <circle class="cls-12" cx="260.44" cy="363.24" r="13.21"/>
  </g>
  <g>
    <circle class="cls-18" cx="312.31" cy="345.21" r="9.95"/>
    <path class="cls-20" d="M314.48,349.61c.93-.58,3.68-2.45,4.79-6.01.47-1.5.5-2.85.44-3.81,2.58,4.86.73,10.93-3.98,13.49-4.63,2.52-10.49.95-13.24-3.54,1.08.52,3.1,1.31,5.74,1.34,2.93.03,5.15-.91,6.25-1.46Z"/>
    <circle class="cls-6" cx="312.31" cy="345.21" r="9.95"/>
  </g>
</svg>